<?xml version="1.0" encoding="utf-8"?>
<!-- Generator: Adobe Illustrator 16.0.0, SVG Export Plug-In . SVG Version: 6.00 Build 0)  -->
<!DOCTYPE svg PUBLIC "-//W3C//DTD SVG 1.1//EN" "http://www.w3.org/Graphics/SVG/1.1/DTD/svg11.dtd">
<svg version="1.1" id="Layer_1" xmlns="http://www.w3.org/2000/svg" xmlns:xlink="http://www.w3.org/1999/xlink" x="0px" y="0px"
	 width="114px" height="114px" viewBox="0 0 114 114" enable-background="new 0 0 114 114" xml:space="preserve">
<rect x="-18.307" y="-22.856" fill="#FFFFFF" width="141.849" height="192.788"/>
<path fill="#3498DB" d="M52.261,8.875c-1.799,0.702-5.227,2.594-6.698,3.842c-2.066,1.751-6.303,5.805-6.995,7.093
	c-0.894,1.666-2.528,6.283-3.053,8.1c-0.511,1.765-0.777,5.456-1.084,7.267c-0.243,1.435-1.32,9.613-1.675,10.858
	C30.293,54.681,26.837,57.539,26.551,60c-0.187,1.602,1.083,7.387,3.841,11.131c1.746,2.369,6.225,6.264,8.374,8.273
	c1.49,1.396,4.609,4.033,6.107,5.418c1.406,1.303,4.989,3.93,6.403,5.223c3.447,3.152,3.35,13.988,8.373,15.877
	c0.588,0.221,1.84,0.541,2.463,0.475c9.162-0.984,3.797-10.146,16.746-20.785c1.092-0.896,3.205-2.783,4.137-3.842
	c0.842-0.955,2.359-3.016,2.957-4.137c2.463-4.631,1.182-16.402,1.182-17.141c0-0.887-0.623-6.879-0.887-7.978
	c-0.977-4.056-3.344-12.059-4.531-16.057c-0.705-2.375-1.945-7.196-2.955-9.456c-0.844-1.886-2.236-5.427-3.252-7.093
	c-1.109-1.823-4.012-5.156-5.418-6.601c-1.279-1.315-4.557-3.627-6.205-4.433c-1.379-0.675-4.473-1.254-6.009-1.28
	C56.436,7.57,53.602,8.351,52.261,8.875z"/>
<path fill="#2980B9" d="M36.401,67.387c-0.415-0.84-0.806-2.709-0.886-3.645c-0.146-1.682,0.179-5.072,0.443-6.742
	c0.383-2.423,1.335-7.307,2.414-9.511c0.616-1.261,2.366-3.536,3.447-4.432c0.789-0.654,2.697-1.482,3.645-1.872
	c1.29-0.529,3.964-1.352,5.32-1.675c1.771-0.423,5.369-1.157,7.19-1.183c1.487-0.021,4.508,0.168,5.911,0.663
	c0.963,0.34,2.553,1.702,3.447,2.194c0.764,0.419,2.479,0.928,3.152,1.478c1.338,1.087,3.148,4.104,4.139,5.517
	c0.801,1.145,2.273,3.519,3.053,4.679c0.701,1.044,2.168,3.089,2.857,4.142c0.436,0.665,1.33,1.986,1.674,2.703
	c0.576,1.201,1.549,3.713,1.773,5.025c0.17,0.994,0.131,3.037,0,4.039c-0.199,1.516-1.355,4.396-1.576,5.91
	c-0.592,4.037-12.117,13.594-13.594,22.064c-0.229,1.307-1.48,3.693-1.971,4.926c-0.234,0.59-0.463,1.938-0.932,2.365
	c-0.826,0.754-3.27,0.953-4.389,0.887c-0.775-0.049-2.336-0.512-2.955-0.986c-0.563-0.432-1.314-1.701-1.565-2.363
	c-0.379-1.002-0.536-3.848-0.601-4.236C54.43,85.611,45.76,78.213,40.834,72.904C39.631,71.607,37.183,68.975,36.401,67.387z"/>
<path fill="#3498DB" d="M41.866,50.073c-0.203,1.07,0.619,3.024,0.84,4.276c0.152,0.866,0.516,6.28,1.281,8.211
	c1.383,3.496,6.19,10.064,9.653,11.525c0.773,0.326,2.521,0.072,3.359,0.018c0.979-0.061,2.963,0.182,3.93-0.018
	c1.242-0.256,3.145-1.668,4.137-2.457c1.354-1.074,3.037-3.328,4.039-4.734c0.473-0.664,2.301-4.217,2.463-5.121
	c0.141-0.787,1.279-6.762,1.279-7.424c0-0.632-0.135-1.908,0-2.524c0.076-0.345,0.592-1.281,0.592-1.281l-2.266-3.054l-2.514-3.117
	l-3.152-0.496l-7.876-2.888c0,0-0.047,0.966,0.736,3.384c0.143,0.434-2.075-3.575-2.461-3.876c-0.788-0.614,0.152,4.118,1.679,5.812
	c0,0-2.463-1.936-3.551-6.009c-0.25-0.938,0,0,0,0s-1.746,0.547-2.167,1.182l-1.247,2.857c0,0,0.01-3.09-0.625-2.66
	C43.401,46.149,42.903,44.615,41.866,50.073z"/>
<path fill="#2980B9" d="M51.178,65.123c-0.279-0.041,0.467-0.715,0.688-0.887c0.34-0.266,1.181-0.521,1.576-0.691
	c0.417-0.176,1.224-0.648,1.675-0.688C55.596,62.813,57,63.25,57,63.25s1.317-0.473,1.762-0.393c0.518,0.09,1.859,0.639,2.365,0.787
	c0.52,0.152,1.104,0.08,1.576,0.344c0.289,0.162,0.852,0.846,0.689,1.135c0,0-2.346,0.109-3.104-0.279
	c-0.502-0.256-2.176,0.494-2.998,0.572c-0.715,0.068-2.048-0.49-2.764-0.49C53.788,64.926,52.575,65.324,51.178,65.123z"/>
<path fill="#2980B9" d="M54.33,68.471c0.315,0.229,1.093-0.43,1.478-0.492c0.803-0.131,2.453-0.154,3.251,0
	c0.188,0.035,0.535,0.236,0.727,0.246c0.293,0.016,1.064,0.035,1.145-0.246c0.105-0.379-0.777-0.938-1.145-1.084
	c-0.494-0.197-1.6,0-2.132,0c-0.462,0-1.398-0.111-1.846,0c-0.406,0.102-1.262,0.43-1.478,0.789
	C54.228,67.852,54.169,68.355,54.33,68.471z"/>
<path fill="#2980B9" d="M55.084,59.703c-0.375-0.041-1.35,0.344-1.51,0c-0.108-0.23,0.424-0.678,0.656-0.787
	c0.193-0.09,0.658-0.086,0.854,0c0.246,0.107,0.51,0.627,0.723,0.787c0.267,0.201,0.861,0.551,1.192,0.592
	c1.28,0.158,1.94-1.189,2.354-1.379c0.18-0.082,0.604-0.068,0.787,0c0.143,0.053,0.33,0.316,0.461,0.395
	c0.063,0.037,0.328,0.131,0,0.295s-0.611-0.008-0.816,0c-0.559,0.021-1.957,0.994-2.517,1.018
	C56.612,60.652,55.74,59.777,55.084,59.703z"/>
<g>
	
		<image overflow="visible" width="131" height="114" xlink:href="C9BB6E2F.png"  transform="matrix(0.24 0 0 0.24 33.1064 35.0259)">
	</image>
	<g>
		<path fill="#FFFFFF" d="M52.524,49.395c-0.657-1.12-2.537-2.068-3.709-2.274c-0.823-0.146-2.558-0.205-3.563,0.441
			c-0.702,0.452,1.295,2.358,2.543,2.62C49.061,50.449,52.524,49.395,52.524,49.395z"/>
	</g>
</g>
<g>
	
		<image overflow="visible" width="131" height="114" xlink:href="C9BB6E2D.png"  transform="matrix(0.24 0 0 0.24 49.7988 35.0259)">
	</image>
	<g>
		<path fill="#FFFFFF" d="M61.799,49.395c0.656-1.12,2.834-2.068,4.006-2.274c0.824-0.146,2.26-0.205,3.266,0.441
			c0.701,0.452-1.295,2.358-2.543,2.62C65.262,50.449,61.799,49.395,61.799,49.395z"/>
	</g>
</g>
<path fill="#2980B9" d="M50.685,43.5c-0.785-0.324-3.892-1.724-4.827-1.527c-0.875,0.185,2.521,1.649,4.762,2.365
	c1.102,0.351,3.611,2.453,3.611,2.453S51.874,43.993,50.685,43.5z"/>
<path fill="#2980B9" d="M68.514,42.466c-0.936-0.197-4.213,0.71-4.996,1.034c-1.189,0.492-3.547,3.291-3.547,3.291
	s2.799-2.036,3.9-2.388C66.111,43.688,69.391,42.651,68.514,42.466z"/>
</svg>
