<?xml version="1.0" encoding="utf-8"?>
<!-- Generator: Adobe Illustrator 16.0.0, SVG Export Plug-In . SVG Version: 6.00 Build 0)  -->
<!DOCTYPE svg PUBLIC "-//W3C//DTD SVG 1.1//EN" "http://www.w3.org/Graphics/SVG/1.1/DTD/svg11.dtd">
<svg version="1.1" id="Layer_1" xmlns="http://www.w3.org/2000/svg" xmlns:xlink="http://www.w3.org/1999/xlink" x="0px" y="0px"
	 width="88px" height="88px" viewBox="0 0 88 88" enable-background="new 0 0 88 88" xml:space="preserve">
<g>
	<path fill="#3498DB" d="M44.188,87.188c-23.71,0-43-19.291-43-43.002c0-23.709,19.29-42.998,43-42.998s43,19.289,43,42.998
		C87.188,67.896,67.898,87.188,44.188,87.188z"/>
	<path fill="#3498DB" d="M44.188,2.188c23.159,0,42,18.84,42,41.998c0,23.16-18.841,42.002-42,42.002c-23.159,0-42-18.842-42-42.002
		C2.188,21.028,21.029,2.188,44.188,2.188 M44.188,0.188c-24.302,0-44,19.707-44,43.998c0,24.305,19.698,44.002,44,44.002
		c24.303,0,44-19.697,44-44.002C88.188,19.895,68.491,0.188,44.188,0.188L44.188,0.188z"/>
</g>
<g>
	<path fill="#ECF0F1" d="M42.037,23.632h4.303v18.267h18.265v4.298H46.34v18.27h-4.303v-18.27H23.771v-4.298h18.266V23.632z"/>
</g>
</svg>
