<?xml version="1.0" encoding="utf-8"?>
<!-- Generator: Adobe Illustrator 16.0.0, SVG Export Plug-In . SVG Version: 6.00 Build 0)  -->
<!DOCTYPE svg PUBLIC "-//W3C//DTD SVG 1.1//EN" "http://www.w3.org/Graphics/SVG/1.1/DTD/svg11.dtd">
<svg version="1.1" id="Layer_1" xmlns="http://www.w3.org/2000/svg" xmlns:xlink="http://www.w3.org/1999/xlink" x="0px" y="0px"
	 width="88px" height="88px" viewBox="0 0 88 88" enable-background="new 0 0 88 88" xml:space="preserve">
<g>
	<path fill="#3498DB" d="M44.001,87.069C20.29,87.069,1,67.778,1,44.067C1,20.358,20.29,1.069,44.001,1.069
		C67.711,1.069,87,20.358,87,44.067C87,67.778,67.711,87.069,44.001,87.069z"/>
	<path fill="#3498DB" d="M44.001,2.069C67.159,2.069,86,20.91,86,44.067c0,23.16-18.841,42.002-41.999,42.002
		C20.842,86.069,2,67.228,2,44.067C2,20.91,20.842,2.069,44.001,2.069 M44.001,0.069C19.699,0.069,0,19.776,0,44.067
		c0,24.305,19.699,44.002,44.001,44.002C68.305,88.069,88,68.372,88,44.067C88,19.776,68.305,0.069,44.001,0.069L44.001,0.069z"/>
</g>
<g>
	<path fill="#ECF0F1" d="M46.152,41.78h18.266v4.299H46.152h-4.303H23.583V41.78h18.266H46.152z"/>
</g>
</svg>
