<?xml version="1.0" encoding="utf-8"?>
<!-- Generator: Adobe Illustrator 16.0.0, SVG Export Plug-In . SVG Version: 6.00 Build 0)  -->
<!DOCTYPE svg PUBLIC "-//W3C//DTD SVG 1.1//EN" "http://www.w3.org/Graphics/SVG/1.1/DTD/svg11.dtd">
<svg version="1.1" id="Layer_1" xmlns="http://www.w3.org/2000/svg" xmlns:xlink="http://www.w3.org/1999/xlink" x="0px" y="0px"
	 width="60px" height="60px" viewBox="0 0 60 60" enable-background="new 0 0 60 60" xml:space="preserve">
<line display="none" fill="none" stroke="#68B0CC" stroke-width="2" stroke-miterlimit="10" x1="-130" y1="30.079" x2="18.688" y2="30.079"/>
<g>
	<path fill="#BDC3C7" d="M29.996,59C14.008,59,1,45.99,1,29.998C1,14.008,14.008,1,29.996,1C45.989,1,59,14.008,59,29.998
		C59,45.99,45.989,59,29.996,59z"/>
	<g>
		<path fill="#BDC3C7" d="M29.996,2C45.438,2,58,14.56,58,29.998C58,45.438,45.438,58,29.996,58C14.559,58,2,45.438,2,29.998
			C2,14.56,14.559,2,29.996,2 M29.996,0C13.433,0,0,13.433,0,29.998C0,46.564,13.433,60,29.996,60C46.57,60,60,46.564,60,29.998
			C60,13.433,46.57,0,29.996,0L29.996,0z"/>
	</g>
</g>
<path fill="none" stroke="#ECF0F1" stroke-miterlimit="10" d="M40.826,41.125c-2.887,2.889-6.725,4.477-10.808,4.477l0,0
	c-4.08,0-7.918-1.588-10.805-4.477c-2.887-2.883-4.477-6.721-4.477-10.804c0-4.082,1.59-7.919,4.477-10.806
	c2.887-2.884,6.725-4.477,10.805-4.477c3.372,0,6.573,1.089,9.212,3.091l-1.684-5.688l1.104-0.328l2.396,8.093l-8.09,2.398
	l-0.33-1.104l6.545-1.941c-2.551-2.177-5.76-3.368-9.153-3.368c-3.772,0-7.321,1.47-9.99,4.139c-2.67,2.669-4.141,6.217-4.141,9.991
	c0,3.772,1.471,7.323,4.141,9.991c2.669,2.668,6.218,4.137,9.99,4.137c3.774,0.002,7.323-1.469,9.991-4.137
	c3.111-3.109,4.578-7.4,4.027-11.77l1.145-0.144C45.775,33.125,44.189,37.764,40.826,41.125z"/>
</svg>
