<?xml version="1.0" encoding="utf-8"?>
<!-- Generator: Adobe Illustrator 16.0.0, SVG Export Plug-In . SVG Version: 6.00 Build 0)  -->
<!DOCTYPE svg PUBLIC "-//W3C//DTD SVG 1.1//EN" "http://www.w3.org/Graphics/SVG/1.1/DTD/svg11.dtd">
<svg version="1.1" id="Layer_1" xmlns="http://www.w3.org/2000/svg" xmlns:xlink="http://www.w3.org/1999/xlink" x="0px" y="0px"
	 width="44px" height="44px" viewBox="0 0 44 44" enable-background="new 0 0 44 44" xml:space="preserve">
<line display="none" fill="none" stroke="#68B0CC" stroke-width="2" stroke-miterlimit="10" x1="-138" y1="22.079" x2="10.688" y2="22.079"/>
<g>
	<path fill="#1B5360" d="M21.998,43C10.419,43,1,33.579,1,21.999C1,10.42,10.419,1,21.998,1C33.578,1,43,10.42,43,21.999
		C43,33.579,33.578,43,21.998,43z"/>
	<path fill="#60A2C4" d="M21.998,2C33.027,2,42,10.972,42,21.999C42,33.027,33.027,42,21.998,42C10.971,42,2,33.027,2,21.999
		C2,10.972,10.971,2,21.998,2 M21.998,0C9.85,0,0,9.85,0,21.999C0,34.147,9.85,44,21.998,44C34.151,44,44,34.147,44,21.999
		C44,9.85,34.151,0,21.998,0L21.998,0z"/>
</g>
<path fill="#67B1CD" stroke="#68B0CC" stroke-miterlimit="10" d="M33.133,20.826l-0.838,0.105c0.403,3.204-0.673,6.351-2.954,8.631
	c-1.957,1.957-4.56,3.035-7.327,3.034c-2.767,0-5.369-1.077-7.326-3.034c-1.958-1.957-3.036-4.56-3.036-7.327
	s1.078-5.369,3.036-7.326c1.957-1.957,4.56-3.035,7.326-3.035c2.488,0,4.842,0.873,6.713,2.47l-4.799,1.424l0.24,0.81l5.934-1.76
	l-1.758-5.935l-0.81,0.241l1.235,4.171c-1.935-1.468-4.283-2.267-6.756-2.267c-2.992,0-5.807,1.168-7.924,3.283
	c-2.117,2.117-3.283,4.931-3.283,7.924c0,2.994,1.166,5.809,3.283,7.924c2.117,2.117,4.932,3.282,7.924,3.282l0,0
	c2.994,0,5.809-1.166,7.925-3.282C32.405,27.693,33.569,24.291,33.133,20.826z"/>
</svg>
