<?xml version="1.0" encoding="utf-8"?>
<!-- Generator: Adobe Illustrator 16.0.0, SVG Export Plug-In . SVG Version: 6.00 Build 0)  -->
<!DOCTYPE svg PUBLIC "-//W3C//DTD SVG 1.1//EN" "http://www.w3.org/Graphics/SVG/1.1/DTD/svg11.dtd">
<svg version="1.1" id="Layer_1" xmlns="http://www.w3.org/2000/svg" xmlns:xlink="http://www.w3.org/1999/xlink" x="0px" y="0px"
	 width="22px" height="22px" viewBox="0 0 22 22" enable-background="new 0 0 22 22" xml:space="preserve">
<g>
	<g>
		<path fill="#ECF0F1" d="M20.636,8.918L18.87,8.526c-0.136-0.439-0.315-0.861-0.523-1.265l0.956-1.591
			c0.354-0.57,0.534-1.408,0-1.945l-0.974-0.972c-0.263-0.264-0.616-0.375-0.972-0.375c-0.367,0-0.739,0.121-1.02,0.314
			l-1.547,0.987c-0.4-0.209-0.82-0.387-1.256-0.528l-0.396-1.787C13.021,0.709,12.446,0,11.688,0h-1.374
			c-0.76,0-1.225,0.719-1.376,1.375L8.496,3.139C8.03,3.288,7.584,3.479,7.157,3.702l-1.585-1.01
			C5.293,2.498,4.92,2.377,4.552,2.377c-0.355,0-0.707,0.111-0.971,0.375L2.61,3.725c-0.539,0.537-0.359,1.375,0,1.945l1.005,1.674
			C3.426,7.723,3.259,8.115,3.131,8.526L1.364,8.917C0.709,9.036,0,9.608,0,10.367v1.375c0,0.759,0.719,1.224,1.376,1.375
			l1.787,0.446c0.124,0.379,0.278,0.744,0.452,1.096L2.61,16.335c-0.358,0.57-0.537,1.407,0,1.944l0.973,0.972
			c0.263,0.264,0.615,0.374,0.97,0.374c0.368,0,0.741-0.118,1.021-0.312l1.589-1.015c0.428,0.228,0.878,0.418,1.346,0.567
			l0.439,1.758C9.098,21.281,9.563,22,10.322,22h1.376c0.76,0,1.332-0.708,1.449-1.365l0.397-1.789
			c0.433-0.14,0.846-0.316,1.243-0.521l1.55,0.987c0.28,0.194,0.652,0.313,1.02,0.313c0.355,0,0.709-0.11,0.972-0.374l0.974-0.972
			c0.534-0.539,0.354-1.374,0-1.944l-0.956-1.595c0.192-0.376,0.356-0.769,0.491-1.177l1.788-0.446
			C21.279,12.967,22,12.502,22,11.743v-1.376C22,9.609,21.29,9.037,20.636,8.918z M20.9,11.743c0,0.054-0.202,0.229-0.543,0.308
			l-1.785,0.444l-0.591,0.149l-0.19,0.578c-0.11,0.338-0.253,0.682-0.428,1.021l-0.274,0.542l0.313,0.523l0.968,1.609
			c0.173,0.278,0.192,0.548,0.157,0.583l-0.978,0.974c-0.046,0.049-0.158,0.052-0.191,0.052c-0.136,0-0.29-0.046-0.392-0.117
			l-0.019-0.012l-0.017-0.012l-1.552-0.989l-0.534-0.342l-0.563,0.294c-0.353,0.182-0.715,0.334-1.074,0.45l-0.599,0.193
			l-0.138,0.615l-0.396,1.791l-0.005,0.021l-0.005,0.021c-0.041,0.229-0.249,0.461-0.367,0.461h-1.376
			c-0.052,0-0.229-0.202-0.306-0.543l-0.441-1.76l-0.148-0.595L8.84,17.817c-0.391-0.123-0.782-0.288-1.166-0.491l-0.564-0.297
			l-0.539,0.345L4.98,18.386l-0.017,0.012L4.945,18.41c-0.104,0.071-0.257,0.116-0.393,0.116c-0.034,0-0.145-0.003-0.193-0.052
			l-0.972-0.971c-0.039-0.038-0.02-0.308,0.166-0.602l1.004-1.677l0.31-0.515L4.6,14.171c-0.162-0.325-0.291-0.635-0.393-0.946
			l-0.188-0.579L3.43,12.498l-1.808-0.451C1.302,11.974,1.1,11.799,1.1,11.745v-1.376c0-0.119,0.233-0.326,0.459-0.367l0.023-0.004
			l0.021-0.004l1.764-0.393l0.62-0.138l0.192-0.606C4.28,8.535,4.417,8.199,4.598,7.834l0.27-0.54L4.556,6.779L3.541,5.086
			C3.368,4.81,3.348,4.542,3.387,4.504l0.972-0.974C4.406,3.485,4.511,3.48,4.551,3.48c0.137,0,0.29,0.045,0.394,0.117l0.018,0.012
			L4.98,3.621l1.587,1.011l0.539,0.342l0.565-0.297c0.375-0.198,0.765-0.362,1.161-0.489l0.585-0.186l0.147-0.596l0.446-1.784
			c0.074-0.319,0.249-0.522,0.304-0.522h1.374c0.118,0,0.328,0.232,0.368,0.46l0.004,0.021l0.005,0.023L12.46,3.39l0.136,0.615
			l0.598,0.192c0.369,0.119,0.735,0.272,1.092,0.458l0.563,0.292l0.535-0.34l1.547-0.987l0.017-0.012l0.019-0.012
			c0.102-0.071,0.256-0.117,0.392-0.117c0.033,0,0.146,0.004,0.194,0.052l0.972,0.971c0.038,0.038,0.019,0.307-0.164,0.602
			l-0.956,1.59l-0.314,0.524l0.277,0.544C17.563,8.143,17.71,8.5,17.82,8.855l0.19,0.608l0.62,0.139l1.767,0.392l0.021,0.004
			l0.023,0.004c0.227,0.041,0.459,0.248,0.459,0.368V11.743L20.9,11.743z M11.011,6.593c-2.434,0-4.412,1.976-4.412,4.404
			c0,2.43,1.978,4.404,4.412,4.404c2.432,0,4.409-1.975,4.409-4.404C15.42,8.569,13.442,6.593,11.011,6.593z M11.019,14.326
			c-1.833,0-3.326-1.488-3.326-3.316c0-1.827,1.493-3.317,3.326-3.317c1.834,0,3.326,1.489,3.326,3.317
			C14.345,12.838,12.853,14.326,11.019,14.326z"/>
	</g>
</g>
</svg>
