<?xml version="1.0" encoding="utf-8"?>
<!-- Generator: Adobe Illustrator 16.0.0, SVG Export Plug-In . SVG Version: 6.00 Build 0)  -->
<!DOCTYPE svg PUBLIC "-//W3C//DTD SVG 1.1//EN" "http://www.w3.org/Graphics/SVG/1.1/DTD/svg11.dtd">
<svg version="1.1" id="Layer_1" xmlns="http://www.w3.org/2000/svg" xmlns:xlink="http://www.w3.org/1999/xlink" x="0px" y="0px"
	 width="30px" height="30px" viewBox="0 0 30 30" enable-background="new 0 0 30 30" xml:space="preserve">
<line display="none" fill="none" stroke="#68B0CC" stroke-width="2" stroke-miterlimit="10" x1="-145" y1="15.079" x2="3.688" y2="15.079"/>
<g>
	<path fill="#BDC3C7" d="M14.998,29C7.279,29,1,22.719,1,14.999C1,7.28,7.279,1,14.998,1C22.719,1,29,7.28,29,14.999
		C29,22.719,22.719,29,14.998,29z"/>
	<g>
		<path fill="#BDC3C7" d="M14.998,2C22.167,2,28,7.832,28,14.999C28,22.168,22.167,28,14.998,28C7.831,28,2,22.168,2,14.999
			C2,7.832,7.831,2,14.998,2 M14.998,0C6.716,0,0,6.716,0,14.999C0,23.282,6.716,30,14.998,30C23.285,30,30,23.282,30,14.999
			C30,6.716,23.285,0,14.998,0L14.998,0z"/>
	</g>
</g>
<path fill="none" stroke="#ECF0F1" stroke-miterlimit="10" d="M22.591,14.2l-0.572,0.072c0.275,2.185-0.458,4.33-2.014,5.885
	c-1.334,1.334-3.108,2.069-4.996,2.068c-1.886,0-3.661-0.734-4.995-2.068c-1.335-1.334-2.07-3.109-2.07-4.996
	c0-1.887,0.735-3.661,2.07-4.996c1.334-1.334,3.109-2.069,4.995-2.069c1.697,0,3.301,0.596,4.577,1.684l-3.272,0.971l0.165,0.552
	l4.045-1.199l-1.198-4.046l-0.552,0.164l0.842,2.844c-1.319-1.001-2.92-1.545-4.606-1.545c-2.04,0-3.959,0.796-5.402,2.238
	c-1.443,1.443-2.238,3.362-2.238,5.403c0,2.042,0.795,3.96,2.238,5.402c1.443,1.444,3.362,2.238,5.402,2.238l0,0
	c2.042,0,3.96-0.794,5.404-2.238C22.095,18.882,22.888,16.563,22.591,14.2z"/>
</svg>
