<?xml version="1.0" encoding="utf-8"?>
<!-- Generator: Adobe Illustrator 16.0.0, SVG Export Plug-In . SVG Version: 6.00 Build 0)  -->
<!DOCTYPE svg PUBLIC "-//W3C//DTD SVG 1.1//EN" "http://www.w3.org/Graphics/SVG/1.1/DTD/svg11.dtd">
<svg version="1.1" id="Layer_1" xmlns="http://www.w3.org/2000/svg" xmlns:xlink="http://www.w3.org/1999/xlink" x="0px" y="0px"
	 width="22px" height="22px" viewBox="0 0 22 22" enable-background="new 0 0 22 22" xml:space="preserve">
<g>
	<g>
		<path fill="#ECF0F1" d="M1.958,12.221h13.965c0.309,0,0.551-0.272,0.551-0.61c0-0.336-0.242-0.611-0.551-0.611H1.993l3.271-3.897
			c0.214-0.237,0.214-0.625,0-0.864c-0.215-0.239-0.563-0.239-0.778,0L0,11.623l4.417,5.424c0.109,0.117,0.25,0.179,0.39,0.179
			c0.141,0,0.282-0.062,0.388-0.179c0.215-0.239,0.215-0.624,0-0.864L1.958,12.221z"/>
		<path fill="#ECF0F1" d="M19.797,0H11c-1.212,0-2.2,1.097-2.2,2.443v5.502H9.9V2.443C9.9,1.77,10.393,1.221,11,1.221h8.797
			c0.609,0,1.102,0.549,1.102,1.222v17.112c0,0.675-0.492,1.225-1.102,1.225H11c-0.605,0-1.099-0.55-1.099-1.225v-4.277H8.799v4.277
			C8.799,20.903,9.787,22,11,22h8.797C21.014,22,22,20.903,22,19.555V2.443C22,1.097,21.014,0,19.797,0z"/>
	</g>
</g>
</svg>
