<?xml version="1.0" encoding="utf-8"?>
<!-- Generator: Adobe Illustrator 16.0.0, SVG Export Plug-In . SVG Version: 6.00 Build 0)  -->
<!DOCTYPE svg PUBLIC "-//W3C//DTD SVG 1.1//EN" "http://www.w3.org/Graphics/SVG/1.1/DTD/svg11.dtd">
<svg version="1.1" id="Layer_1" xmlns="http://www.w3.org/2000/svg" xmlns:xlink="http://www.w3.org/1999/xlink" x="0px" y="0px"
	 width="44px" height="44px" viewBox="0 0 44 44" enable-background="new 0 0 44 44" xml:space="preserve">
<g>
	<path fill="#96C0C6" d="M22,2.069c11.028,0,20,8.972,20,19.999c0,11.028-8.972,20.001-20,20.001S2,33.097,2,22.068
		C2,11.041,10.973,2.069,22,2.069 M22,0.069C9.85,0.069,0,9.923,0,22.068C0,34.221,9.85,44.069,22,44.069
		c12.152,0,22-9.849,22-22.001C44,9.923,34.152,0.069,22,0.069L22,0.069z"/>
</g>
<g>
	<path fill="#96C0C6" d="M22.791,21.21H29.5v1.58h-6.709H21.21H14.5v-1.58h6.71H22.791z"/>
</g>
</svg>
