<?xml version="1.0" encoding="utf-8"?>
<!-- Generator: Adobe Illustrator 16.0.0, SVG Export Plug-In . SVG Version: 6.00 Build 0)  -->
<!DOCTYPE svg PUBLIC "-//W3C//DTD SVG 1.1//EN" "http://www.w3.org/Graphics/SVG/1.1/DTD/svg11.dtd">
<svg version="1.1" id="Layer_1" xmlns="http://www.w3.org/2000/svg" xmlns:xlink="http://www.w3.org/1999/xlink" x="0px" y="0px"
	 width="30px" height="30px" viewBox="0 0 30 30" enable-background="new 0 0 30 30" xml:space="preserve">
<line display="none" fill="none" stroke="#68B0CC" stroke-width="2" stroke-miterlimit="10" x1="-145" y1="15.079" x2="3.688" y2="15.079"/>
<g>
	<path fill="#BDC3C7" d="M14.998,29C7.279,29,1,22.719,1,14.999C1,7.28,7.279,1,14.998,1C22.719,1,29,7.28,29,14.999
		C29,22.719,22.719,29,14.998,29z"/>
	<g>
		<path fill="#BDC3C7" d="M14.998,2C22.167,2,28,7.832,28,14.999C28,22.168,22.167,28,14.998,28C7.831,28,2,22.168,2,14.999
			C2,7.832,7.831,2,14.998,2 M14.998,0C6.716,0,0,6.716,0,14.999C0,23.282,6.716,30,14.998,30C23.285,30,30,23.282,30,14.999
			C30,6.716,23.285,0,14.998,0L14.998,0z"/>
	</g>
</g>
<path fill="none" stroke="#ECF0F1" stroke-miterlimit="10" d="M20.413,20.563c-1.443,1.444-3.362,2.238-5.404,2.238l0,0
	c-2.04,0-3.959-0.794-5.402-2.238c-1.443-1.441-2.238-3.36-2.238-5.402c0-2.041,0.795-3.959,2.238-5.403
	c1.443-1.442,3.362-2.238,5.402-2.238c1.686,0,3.287,0.544,4.606,1.545l-0.842-2.844l0.552-0.164l1.198,4.046l-4.045,1.199
	l-0.165-0.552l3.272-0.971c-1.275-1.088-2.88-1.684-4.577-1.684c-1.886,0-3.661,0.735-4.995,2.069
	c-1.335,1.334-2.07,3.108-2.07,4.996c0,1.886,0.735,3.662,2.07,4.996c1.334,1.334,3.109,2.068,4.995,2.068
	c1.887,0.001,3.662-0.734,4.996-2.068c1.556-1.555,2.289-3.7,2.014-5.885l0.572-0.072C22.888,16.563,22.095,18.882,20.413,20.563z"
	/>
</svg>
